<?xml version="1.0" encoding="UTF-8"?>
<svg version="1.1" xmlns="http://www.w3.org/2000/svg" width="512" height="512">
<path d="M0 0 C0.80918176 0.00468233 1.61836352 0.00936466 2.45206594 0.01418889 C3.31146827 0.011282 4.1708706 0.00837512 5.05631542 0.00538015 C7.96782219 -0.0019826 10.87912234 0.00505252 13.79062796 0.01190388 C15.88632837 0.00960193 17.98202798 0.0064272 20.07772589 0.00244939 C25.86136718 -0.0059437 31.64494296 -0.00175297 37.42858458 0.00442183 C43.65632602 0.00892696 49.88405579 0.00197224 56.11179495 -0.00353801 C67.61510359 -0.01193845 79.11838284 -0.01118073 90.62169135 -0.00571508 C101.24721967 -0.00069105 111.87274029 0.00063275 122.49826956 -0.00176036 C123.20210599 -0.00191313 123.90594243 -0.0020659 124.63110724 -0.0022233 C127.48795137 -0.00284594 130.34479549 -0.00348274 133.20163961 -0.00414283 C160.02063447 -0.01026576 186.83961594 -0.0047061 213.65860873 0.00605096 C237.50438014 0.01554272 261.35013018 0.01469349 285.19590139 0.00512898 C311.96472263 -0.00557198 338.73353202 -0.00983159 365.5023551 -0.00364649 C368.35410197 -0.00300502 371.20584885 -0.00237935 374.05759573 -0.00176036 C374.75980833 -0.00160221 375.46202092 -0.00144405 376.18551269 -0.00128111 C386.80636979 0.00099728 397.42721833 -0.0016731 408.04807425 -0.00671947 C420.12013015 -0.01242664 432.19215529 -0.01083924 444.26421022 -0.00015798 C450.4293977 0.00511624 456.59454171 0.00712586 462.75972891 0.00054371 C468.39493887 -0.00538184 474.03006475 -0.00219725 479.66526699 0.00849882 C481.71233473 0.01074735 483.75940947 0.00956439 485.80647278 0.00474724 C488.57235172 -0.00126605 491.33793624 0.0048335 494.10379934 0.01418889 C494.9129811 0.00950655 495.72216287 0.00482422 496.55586529 0 C502.0496319 0.03757043 502.0496319 0.03757043 504.27793264 2.26587117 C504.52863097 4.46763575 504.52863097 4.46763575 504.52961493 7.26967824 C504.53743817 8.86745476 504.53743817 8.86745476 504.54541945 10.4975096 C504.53872729 12.26683356 504.53872729 12.26683356 504.53189993 14.07190144 C504.53501991 15.31768263 504.53813989 16.56346382 504.54135442 17.84699595 C504.5497389 21.31613232 504.5455607 24.78515931 504.53938198 28.25429618 C504.53487335 31.99121989 504.54183332 35.72812423 504.54734182 39.46504414 C504.55625453 46.79010651 504.55430549 54.11512799 504.54851654 61.44019198 C504.54400742 67.39121831 504.54338389 73.34223315 504.54556417 79.29326069 C504.54587064 80.13889745 504.54617711 80.9845342 504.54649286 81.85579631 C504.54713228 83.57346678 504.54778071 85.29113725 504.54843804 87.00880772 C504.55414683 103.13120775 504.54757485 119.25358508 504.53683731 135.37598139 C504.5279013 149.22226462 504.52945319 163.06851432 504.53867483 176.91479695 C504.54936778 192.97786476 504.55359746 209.04091265 504.5474503 225.10398352 C504.54681318 226.81548289 504.54618444 228.52698226 504.54556417 230.23848164 C504.54525562 231.08066387 504.54494707 231.9228461 504.54462917 232.79054901 C504.5428993 238.73729922 504.54582361 244.68403684 504.55052328 250.63078511 C504.5561213 257.87376657 504.55463849 265.11670466 504.54396179 272.35968113 C504.53869047 276.05810374 504.53667301 279.75645393 504.5432601 283.45487607 C504.55027979 287.4565946 504.54192197 291.45812884 504.53189993 295.45984089 C504.53636137 296.6393902 504.54082282 297.81893951 504.54541945 299.03423274 C504.54020396 300.09941709 504.53498847 301.16460144 504.52961493 302.2620641 C504.52929022 303.18673812 504.52896552 304.11141214 504.52863097 305.06410658 C504.27793264 307.26587117 504.27793264 307.26587117 502.27793264 309.26587117 C500.47782457 309.51426816 500.47782457 309.51426816 498.2524333 309.51196682 C496.98198756 309.51793997 496.98198756 309.51793997 495.68587625 309.52403378 C494.75009245 309.5182081 493.81430864 309.51238242 492.85016775 309.5063802 C491.86023923 309.50808905 490.87031071 309.5097979 489.85038435 309.51155853 C486.51219677 309.51486946 483.17420738 309.5038234 479.83603811 309.49292195 C477.45153702 309.49235818 475.06703558 309.49267372 472.68253469 309.49380696 C466.86610701 309.49432294 461.04974493 309.48562688 455.23333226 309.47293164 C448.46711466 309.45865563 441.7009065 309.45564315 434.93467595 309.4533553 C422.86760309 309.44897503 410.80055724 309.43565694 398.73349905 309.41675007 C387.00954209 309.39839985 375.28559246 309.38423915 363.56162405 309.37573445 C362.83929657 309.375209 362.11696908 309.37468355 361.37275289 309.37414218 C357.74914896 309.37153216 354.12554498 309.36900473 350.50194097 309.36651838 C320.42725261 309.34577555 290.35259578 309.31039263 260.27793264 309.26587117 C262.04207441 311.51275841 263.80642723 313.75947936 265.57090139 316.00610554 C266.0677947 316.63901509 266.56468801 317.27192463 267.0766387 317.92401326 C270.4537927 322.22354631 273.8509309 326.50593952 277.27793264 330.76587117 C281.1562519 335.60126872 285.01411197 340.45171179 288.84043264 345.32837117 C289.24434729 345.82475087 289.64826193 346.32113057 290.06441641 346.83255208 C292.43218215 349.77751826 294.57806075 352.68346571 296.45932913 355.96411335 C299.28978984 360.62296815 302.16449304 365.23734986 307.55481863 367.01803792 C313.93218291 368.09358871 320.3451446 367.74512853 326.77793264 367.45337117 C329.66902062 367.38239323 332.55945717 367.33115483 335.45115042 367.29255879 C337.24018191 367.26230411 339.02900898 367.20984275 340.81662893 367.13261616 C341.62176931 367.10722264 342.42690969 367.08182911 343.25644827 367.05566609 C343.96273367 367.02454228 344.66901907 366.99341847 345.39670706 366.96135151 C347.89641571 367.36598688 348.74800661 368.28972895 350.27793264 370.26587117 C350.68779546 372.99828996 350.73715369 374.5397104 349.24558401 376.89831173 C346.19272554 379.02011312 343.00737959 378.67842188 339.42051077 378.64682209 C338.61152082 378.65150207 337.80253088 378.65618204 336.96902609 378.66100383 C334.2489132 378.67300273 331.52929958 378.66347762 328.80918264 378.65405476 C326.86289058 378.65811829 324.91660082 378.66345894 322.97031546 378.66998494 C317.67701479 378.68369033 312.38388905 378.67834659 307.09058523 378.66884768 C301.55862843 378.66126777 296.02668689 378.66829204 290.49472952 378.67300618 C281.20368646 378.6784686 271.91271486 378.67125935 262.62168264 378.65698445 C251.87038079 378.64065703 241.11924959 378.64594519 230.36795187 378.66246367 C221.14752377 378.67606466 211.92714713 378.67800498 202.70671225 378.67014766 C197.19518628 378.66546351 191.6837406 378.66486662 186.17221975 378.67475712 C180.9913521 378.68340435 175.8107051 378.677446 170.62986135 378.66007435 C168.72507993 378.65609749 166.82028003 378.65726395 164.91550589 378.66386235 C162.32186887 378.67202069 159.72894565 378.66182591 157.13535452 378.64682209 C156.37573164 378.65351426 155.61610876 378.66020643 154.83346701 378.66710138 C149.77313065 378.61004428 149.77313065 378.61004428 147.31028128 376.89831173 C145.81871159 374.5397104 145.86806982 372.99828996 146.27793264 370.26587117 C147.55201101 368.62077534 147.55201101 368.62077534 149.27793264 367.26587117 C152.35394773 367.12827681 155.23873677 367.16110138 158.30137014 367.31665242 C160.1463372 367.35777249 161.9914005 367.39474305 163.83652639 367.42798054 C166.73469398 367.49121773 169.62306514 367.57673449 172.51767874 367.73535359 C183.45675319 368.54198304 183.45675319 368.54198304 193.38477468 364.76797688 C197.25562261 361.02118235 200.22806223 356.73086316 203.07444143 352.1770345 C204.53684322 349.85471702 206.18508179 347.72368736 207.89902639 345.58227742 C208.83972066 344.3323972 209.77858646 343.0811383 210.71543264 341.82837117 C215.80795062 335.08836676 221.09431377 328.53408819 226.52182913 322.06103718 C227.07040579 321.40417927 227.61898245 320.74732136 228.18418264 320.07055867 C228.6617803 319.50321003 229.13937796 318.9358614 229.63144827 318.35132039 C231.10869208 316.48023252 232.49930919 314.57758204 233.88083792 312.63553059 C234.55464624 311.68922622 234.55464624 311.68922622 235.24206686 310.72380459 C235.75482042 310.00212755 235.75482042 310.00212755 236.27793264 309.26587117 C235.03257301 309.26771475 233.78721338 309.26955834 232.50411558 309.27145779 C202.9667339 309.31473835 173.4293594 309.34773457 143.89195389 309.36800183 C140.25938295 309.37050335 136.62681208 309.37309199 132.99424124 309.37573445 C132.27103708 309.37625907 131.54783293 309.37678369 130.8027135 309.37732421 C119.08024178 309.38603574 107.35778961 309.40180981 95.6353295 309.42017676 C83.61424915 309.43885503 71.59317905 309.44998349 59.57208478 309.45404816 C52.8169734 309.45655033 46.06190283 309.46258722 39.30680609 309.47733128 C32.95561988 309.4908524 26.60449656 309.49510495 20.25329733 309.49208653 C17.91592585 309.49263915 15.57855238 309.49664901 13.24119329 309.50428212 C10.06261607 309.51415782 6.88427974 309.51186718 3.70569754 309.5063802 C2.30202183 309.51511872 2.30202183 309.51511872 0.86998904 309.52403378 C0.02302521 309.52005169 -0.82393862 309.51606959 -1.69656801 309.51196682 C-2.43094713 309.51272627 -3.16532625 309.51348571 -3.92195928 309.51426816 C-5.72206736 309.26587117 -5.72206736 309.26587117 -7.72206736 307.26587117 C-7.97276568 305.06410658 -7.97276568 305.06410658 -7.97374964 302.2620641 C-7.97896513 301.19687975 -7.98418063 300.1316954 -7.98955417 299.03423274 C-7.98509272 297.85468343 -7.98063128 296.67513412 -7.97603464 295.45984089 C-7.98071461 293.59116911 -7.98071461 293.59116911 -7.98548913 291.68474638 C-7.99387361 288.21561001 -7.98969541 284.74658303 -7.98351669 281.27744615 C-7.97900806 277.54052245 -7.98596803 273.8036181 -7.99147654 270.06669819 C-8.00038924 262.74163583 -7.9984402 255.41661435 -7.99265125 248.09155035 C-7.98814213 242.14052402 -7.9875186 236.18950919 -7.98969889 230.23848164 C-7.99000535 229.39284489 -7.99031182 228.54720814 -7.99062757 227.67594603 C-7.991267 225.95827555 -7.99191542 224.24060508 -7.99257275 222.52293462 C-7.99828155 206.40053458 -7.99170956 190.27815726 -7.98097202 174.15576094 C-7.97203601 160.30947771 -7.9735879 146.46322801 -7.98280954 132.61694539 C-7.9935025 116.55387757 -7.99773217 100.49082969 -7.99158502 84.42775881 C-7.99094789 82.71625944 -7.99031915 81.00476007 -7.98969889 79.29326069 C-7.98939034 78.45107846 -7.98908178 77.60889623 -7.98876388 76.74119332 C-7.98703401 70.79444311 -7.98995832 64.84770549 -7.99465799 58.90095723 C-8.00025602 51.65797576 -7.9987732 44.41503767 -7.98809651 37.1720612 C-7.98282519 33.4736386 -7.98080773 29.77528841 -7.98739481 26.07686627 C-7.99441451 22.07514773 -7.98605668 18.0736135 -7.97603464 14.07190144 C-7.98049608 12.89235213 -7.98495753 11.71280282 -7.98955417 10.4975096 C-7.98433867 9.43232525 -7.97912318 8.3671409 -7.97374964 7.26967824 C-7.97342493 6.34500422 -7.97310023 5.4203302 -7.97276568 4.46763575 C-7.41492328 -0.43162964 -4.15582522 0.0284206 0 0 Z M3.27793264 11.26587117 C3.27793264 105.97587117 3.27793264 200.68587117 3.27793264 298.26587117 C164.97793264 298.26587117 326.67793264 298.26587117 493.27793264 298.26587117 C493.27793264 203.55587117 493.27793264 108.84587117 493.27793264 11.26587117 C331.57793264 11.26587117 169.87793264 11.26587117 3.27793264 11.26587117 Z M247.27793264 315.26587117 C240.20127747 323.79394847 233.15134503 332.33549474 226.3389678 341.07690632 C223.93868653 344.15589393 221.52037831 347.21798484 219.07090139 350.25805867 C218.5322344 350.92692097 217.99356741 351.59578328 217.43857718 352.28491414 C216.40646489 353.56425405 215.37242014 354.84203846 214.33603811 356.11792195 C213.86440237 356.70299519 213.39276663 357.28806843 212.90683889 357.89087117 C212.49506399 358.39876179 212.08328909 358.90665242 211.65903616 359.42993367 C209.75423616 361.96203478 208.03553582 364.6294664 206.27793264 367.26587117 C233.99793264 367.26587117 261.71793264 367.26587117 290.27793264 367.26587117 C286.62651336 362.39731212 282.97775718 357.54616076 279.21543264 352.76587117 C278.75209524 352.17620564 278.28875784 351.58654011 277.81137991 350.97900593 C273.62319591 345.66748495 269.3536228 340.42383111 265.06723928 335.19140828 C262.43488366 331.96654582 259.84278499 328.72280978 257.33652639 325.39868367 C256.8815679 324.79548298 256.4266094 324.1922823 255.95786428 323.57080281 C254.73204366 321.93400547 253.51634791 320.28963934 252.30137014 318.64477742 C250.43025693 316.0290074 250.43025693 316.0290074 247.27793264 315.26587117 Z " fill="#000000" transform="translate(7.722067356109619,66.73412883281708)"/>
<path d="M0 0 C5.95248763 -0.64936229 5.95248763 -0.64936229 8.69773579 1.0524416 C10.69091346 4.0332729 10.42185162 7.0696215 10.39872742 10.53593445 C10.40537424 11.31028912 10.41202107 12.08464379 10.41886932 12.88246375 C10.43756754 15.48517012 10.4348895 18.08741954 10.43237305 20.69018555 C10.44138606 22.55267998 10.45171213 24.41516846 10.46325684 26.27764893 C10.49090716 31.3413749 10.50012224 36.40498857 10.50611091 41.46878028 C10.51547372 46.75794435 10.54167534 52.04702385 10.56611633 57.33613586 C10.60984275 67.35519639 10.63835196 77.37424057 10.66143972 87.39336759 C10.6884585 98.79834727 10.73237202 110.20324213 10.77772844 121.60816133 C10.87066268 145.07206161 10.94230318 168.5359885 11 192 C12.7308521 189.96886325 14.45970539 187.93607889 16.1875 185.90234375 C16.91163086 185.05319397 16.91163086 185.05319397 17.65039062 184.18688965 C22.19295166 178.83451803 26.45245546 173.28555984 30.70117188 167.69873047 C33.93217155 163.47292299 37.21723207 159.28981351 40.53125 155.12890625 C41.98304229 153.28889735 43.41128985 151.42906475 44.78125 149.52734375 C46.25 147.5625 46.25 147.5625 49 145 C56.11030005 144.94250431 62.15620457 148.70676903 68.375 151.8125 C70.54890776 152.88267193 72.7233776 153.95170293 74.8984375 155.01953125 C75.9306543 155.52822754 76.96287109 156.03692383 78.02636719 156.56103516 C81.97569088 158.47214467 85.97144799 160.26306587 90 162 C89.98984863 160.92975586 89.97969727 159.85951172 89.96923828 158.75683594 C89.89993031 148.06096357 90.17593375 137.41680369 90.74462891 126.73632812 C90.87709636 124.21002002 90.99537283 121.68327492 91.11328125 119.15625 C91.19706582 117.52599772 91.28166977 115.89578729 91.3671875 114.265625 C91.41732498 113.14997162 91.41732498 113.14997162 91.46847534 112.01177979 C91.7151995 107.66841306 92.23952035 103.98590174 94 100 C96.31265259 98.30296326 96.31265259 98.30296326 99.24072266 96.95483398 C100.33591217 96.43666611 101.43110168 95.91849823 102.55947876 95.3846283 C103.74899139 94.8439119 104.93850403 94.3031955 106.1640625 93.74609375 C107.39892742 93.16089534 108.63242107 92.5727954 109.86459351 91.98194885 C115.08415582 89.48473714 120.32506541 87.03461398 125.58056641 84.61401367 C128.8016193 83.12800017 132.00331483 81.60544183 135.19666672 80.06086922 C136.98692084 79.20842153 138.79676685 78.39750634 140.60684204 77.58799744 C149.70642311 73.1755721 153.50833317 67.76578668 158 59 C158.73087599 57.73623065 159.46823304 56.47613019 160.21826172 55.22363281 C160.78303223 54.22686523 161.34780273 53.23009766 161.9296875 52.203125 C162.57494385 51.06721924 163.2202002 49.93131348 163.88500977 48.76098633 C164.21026642 48.18651764 164.53552307 47.61204895 164.87063599 47.02017212 C165.90240991 45.20169056 166.9404395 43.38690962 167.98022461 41.57299805 C171.04422821 36.22391625 174.08826763 30.86923694 177.01171875 25.44140625 C177.45080566 24.64508789 177.88989258 23.84876953 178.34228516 23.02832031 C179.12897614 21.59974741 179.89715595 20.16074581 180.64208984 18.70996094 C182.61681724 15.17585132 183.63776469 14.1060297 187.58984375 12.94921875 C191 13 191 13 194 15 C194.6020262 20.2520781 193.68856094 23.39974101 191.02734375 27.89453125 C190.3818457 29.00296387 189.73634766 30.11139648 189.07128906 31.25341797 C188.36029156 32.43993779 187.64902215 33.62629472 186.9375 34.8125 C186.2130405 36.04486817 185.49007919 37.27811819 184.76855469 38.51220703 C183.27360524 41.06546533 181.77110941 43.6140536 180.26318359 46.15966797 C178.05692943 49.89210084 175.89151861 53.64694384 173.73828125 57.41015625 C173.39993759 58.00087418 173.06159393 58.5915921 172.71299744 59.20021057 C171.7251755 60.92505098 170.73758537 62.65002413 169.75 64.375 C168.53900792 66.48844211 167.32563475 68.60052247 166.109375 70.7109375 C165.60374023 71.59056152 165.09810547 72.47018555 164.57714844 73.37646484 C164.05668945 74.24223145 163.53623047 75.10799805 163 76 C162.5261084 76.98621338 162.0522168 77.97242676 161.56396484 78.98852539 C157.58583693 83.66098852 152.46813961 85.19858124 146.8671875 87.47265625 C144.42546445 88.54542042 141.98684647 89.62359586 139.55078125 90.70898438 C135.72540481 92.4068264 131.89538358 94.06858238 128.00244141 95.60620117 C115.38761964 100.57163893 115.38761964 100.57163893 105 109 C101.5968686 117.14157621 102.23171169 125.91926783 102.80297852 134.56167603 C103.06860285 139.19722391 102.80007834 143.72360684 102.47265625 148.34765625 C102.39736972 149.82986486 102.3262739 151.31229344 102.25976562 152.79492188 C102.21009644 153.84764282 102.21009644 153.84764282 102.15942383 154.92163086 C102.09278914 156.39346855 102.03018728 157.86549262 101.97094727 159.33764648 C101.87995304 161.55010619 101.77162191 163.76114652 101.66015625 165.97265625 C101.60480713 167.23343994 101.54945801 168.49422363 101.49243164 169.79321289 C100.96453679 173.2309416 100.69184958 174.78434474 98 177 C91.84898956 177.97214383 87.54827215 175.77440116 82.22265625 173.0625 C81.41130722 172.66297119 80.59995819 172.26344238 79.76402283 171.85180664 C77.19023367 170.58072764 74.62646367 169.29076501 72.0625 168 C70.31247706 167.13154565 68.56183177 166.26434422 66.81054688 165.3984375 C62.53302361 163.28006177 58.26437817 161.14470621 54 159 C52.2691479 161.03113675 50.54029461 163.06392111 48.8125 165.09765625 C48.32974609 165.6637561 47.84699219 166.22985596 47.34960938 166.81311035 C43.25260291 171.64049758 39.38250058 176.61612236 35.55078125 181.65625 C32.79742176 185.27710632 29.99720017 188.86026502 27.1875 192.4375 C26.74341797 193.00460693 26.29933594 193.57171387 25.84179688 194.15600586 C25.19887695 194.97403687 25.19887695 194.97403687 24.54296875 195.80859375 C24.17196045 196.28095459 23.80095215 196.75331543 23.41870117 197.23999023 C21.31171313 199.85387369 19.15089524 202.42213513 17 205 C18.00736615 205.00238835 19.0147323 205.00477671 20.0526247 205.00723743 C44.53856686 205.06597313 69.02441015 205.141819 93.51024342 205.23571491 C105.35130233 205.28072373 117.19233082 205.32012659 129.03344727 205.34643555 C139.35144722 205.36937451 149.66935131 205.40272636 159.9872753 205.44870156 C165.45300111 205.47268924 170.91863166 205.49138161 176.38440895 205.49761391 C181.52504865 205.50363975 186.66544443 205.52354848 191.80599403 205.55427551 C193.69624644 205.56309601 195.58653066 205.56677008 197.47680283 205.56500816 C200.05092664 205.56336586 202.62429757 205.57996454 205.19831848 205.60127258 C205.95220582 205.59642501 206.70609316 205.59157743 207.48282558 205.58658296 C212.49594903 205.6554163 212.49594903 205.6554163 214.95635509 207.33742046 C216.64447491 210.02668138 216.5134407 211.91935582 216 215 C211.84467972 218.45430968 207.69551079 218.42232403 202.52915955 218.3742218 C201.67833079 218.37819621 200.82750204 218.38217061 199.9508906 218.38626546 C197.1011234 218.39588668 194.25185285 218.38407141 191.40209961 218.37231445 C189.35861526 218.37474245 187.3151321 218.37846186 185.27165222 218.38337708 C179.72220658 218.39278792 174.17293724 218.38335924 168.62350535 218.37004495 C162.81976845 218.35873613 157.01604029 218.36283748 151.21229553 218.36479187 C141.46661495 218.36567495 131.72100391 218.35459082 121.9753418 218.33618164 C110.70145345 218.3150079 99.42766696 218.31150533 88.15376276 218.3177436 C77.31538606 218.32343423 66.4770453 218.31779552 55.63867378 218.30657005 C51.0227244 218.3019207 46.40679696 218.30105167 41.79084587 218.3031559 C36.35800938 218.30503676 30.92527685 218.29695043 25.49246407 218.2810955 C23.49618586 218.27684589 21.49989712 218.27600663 19.50361633 218.27878571 C16.78358165 218.28199841 14.06385937 218.27294871 11.34385681 218.26069641 C10.54960153 218.26447573 9.75534625 218.26825506 8.93702263 218.27214891 C2.08191418 218.21733832 2.08191418 218.21733832 -1 216 C-2.6051578 212.7896844 -2.14042877 209.29564708 -2.13371277 205.76930237 C-2.13597833 204.90808067 -2.13824388 204.04685897 -2.14057809 203.15953964 C-2.14693785 200.25681835 -2.14608747 197.35414352 -2.14526367 194.45141602 C-2.14825392 192.37719665 -2.15165613 190.30297784 -2.15544128 188.22875977 C-2.16429883 182.58215966 -2.16662012 176.9355747 -2.16725707 171.28896832 C-2.16820469 166.5819374 -2.17188126 161.87491003 -2.17542917 157.16788048 C-2.18358028 146.06691524 -2.18601279 134.96595812 -2.18530273 123.86499023 C-2.18470165 112.39745293 -2.19525804 100.92996262 -2.2110464 89.46243721 C-2.22410255 79.630582 -2.22948745 69.79874218 -2.22884732 59.96687835 C-2.22859178 54.08870191 -2.23147377 48.21056721 -2.24202538 42.33239937 C-2.25167411 36.80605349 -2.2518078 31.27978955 -2.24450874 25.75344086 C-2.2434589 23.72126331 -2.24584933 21.68908075 -2.2518692 19.65691185 C-2.25953575 16.89040387 -2.25497996 14.12418265 -2.24723816 11.35768127 C-2.25238172 10.54679395 -2.25752529 9.73590662 -2.26282471 8.90044695 C-2.23898817 5.06623517 -2.17870155 3.26805233 0 0 Z " fill="#000000" transform="translate(44,113)"/>
<path d="M0 0 C1.54675415 -0.01407143 1.54675415 -0.01407143 3.12475586 -0.02842712 C4.23729736 -0.01719315 5.34983887 -0.00595917 6.49609375 0.00561523 C7.63892822 0.00416 8.7817627 0.00270477 9.95922852 0.00120544 C12.37681628 0.00286633 14.79441441 0.01444858 17.21191406 0.03515625 C20.9190752 0.06409565 24.62480595 0.05577129 28.33203125 0.04272461 C30.67839239 0.04896216 33.024749 0.05735323 35.37109375 0.06811523 C36.48363525 0.0651796 37.59617676 0.06224396 38.74243164 0.05921936 C39.77360107 0.07190353 40.80477051 0.08458771 41.8671875 0.09765625 C42.77525146 0.10305923 43.68331543 0.10846222 44.61889648 0.11402893 C47.53095034 0.60175802 48.21309188 1.10945005 49.93359375 3.50170898 C50.30832386 6.62674713 50.30832386 6.62674713 50.30781555 10.56188965 C50.31178996 11.28512499 50.31576436 12.00836034 50.31985921 12.75351191 C50.3295043 15.18344784 50.31765112 17.61280476 50.3059082 20.04272461 C50.30833544 21.78212197 50.31205411 23.52151793 50.31697083 25.26091003 C50.32639274 29.99019604 50.31694349 34.71927555 50.3036387 39.44854546 C50.29234067 44.39192622 50.29643043 49.33529657 50.29838562 54.27868652 C50.29926912 62.5810891 50.28817654 70.8834101 50.26977539 79.18579102 C50.24860692 88.79190519 50.24509756 98.39789984 50.25133735 108.00403261 C50.2570272 117.23526371 50.25138982 126.4664526 50.2401638 135.69767761 C50.23551279 139.63063841 50.23464614 143.56357345 50.23674965 147.49653625 C50.23862991 152.125811 50.23054887 156.75496367 50.21468925 161.38421059 C50.21043784 163.08580839 50.20960159 164.78741855 50.21237946 166.48901939 C50.21558965 168.80665744 50.20654909 171.12392807 50.19429016 173.44152832 C50.19223729 174.74012535 50.19018442 176.03872238 50.18806934 177.37667084 C49.93359375 180.50170898 49.93359375 180.50170898 47.93359375 183.50170898 C45.09640876 184.44743731 43.30120537 184.63812875 40.35791016 184.6628418 C39.43329987 184.67244934 38.50868958 184.68205688 37.55606079 184.69195557 C36.55916229 184.69620544 35.56226379 184.70045532 34.53515625 184.70483398 C33.50804535 184.71053406 32.48093445 184.71623413 31.42269897 184.72210693 C29.24893219 184.73155531 27.07515109 184.73809027 24.90136719 184.74194336 C21.57852165 184.75165077 18.25629416 184.78267683 14.93359375 184.81420898 C12.82161826 184.82073899 10.70963834 184.82598947 8.59765625 184.82983398 C7.60480621 184.84218079 6.61195618 184.85452759 5.58901978 184.86724854 C-3.12260307 184.83916385 -3.12260307 184.83916385 -7.06640625 181.50170898 C-8.53938781 178.55574586 -8.19922334 175.93429692 -8.20684814 172.6444397 C-8.20981927 171.93093145 -8.21279039 171.2174232 -8.21585155 170.48229349 C-8.22455802 168.07941115 -8.22604843 165.67657852 -8.22753906 163.27368164 C-8.23216584 161.55575961 -8.2371903 159.83783861 -8.24258423 158.11991882 C-8.25572323 153.44429835 -8.26215603 148.76869225 -8.26659489 144.0930562 C-8.26952301 141.17398795 -8.2736273 138.25492366 -8.27809906 135.33585739 C-8.29177753 126.2087546 -8.30144265 117.08166081 -8.30530095 107.95454848 C-8.30978365 97.40739753 -8.32733993 86.86037606 -8.35630155 76.31326449 C-8.37789396 68.16800342 -8.38800391 60.02277884 -8.38934207 51.87748945 C-8.39039179 47.00920413 -8.39633506 42.14104046 -8.41416168 37.27278519 C-8.43060038 32.69439374 -8.4328184 28.11621593 -8.42402267 23.53780556 C-8.42325006 21.85596839 -8.42762448 20.17411994 -8.43748093 18.49231148 C-8.45013493 16.1989328 -8.44435996 13.90631828 -8.43389893 11.61294556 C-8.43536549 10.32872019 -8.43683205 9.04449482 -8.43834305 7.72135353 C-7.77406919 1.97111395 -5.685801 0.00104045 0 0 Z M3.93359375 12.50170898 C3.93359375 65.30170898 3.93359375 118.10170898 3.93359375 172.50170898 C15.15359375 172.50170898 26.37359375 172.50170898 37.93359375 172.50170898 C37.93359375 119.70170898 37.93359375 66.90170898 37.93359375 12.50170898 C26.71359375 12.50170898 15.49359375 12.50170898 3.93359375 12.50170898 Z " fill="#000000" transform="translate(420.06640625,146.498291015625)"/>
<path d="M0 0 C1.01114868 -0.00953201 2.02229736 -0.01906403 3.06408691 -0.02888489 C4.7000885 -0.02751778 4.7000885 -0.02751778 6.36914062 -0.02612305 C7.48977905 -0.03040817 8.61041748 -0.0346933 9.76501465 -0.03910828 C12.13549117 -0.04485395 14.50598532 -0.04535011 16.87646484 -0.04101562 C20.51104658 -0.03785427 24.14481575 -0.06131766 27.77929688 -0.08666992 C30.08007709 -0.08894267 32.38085951 -0.08964653 34.68164062 -0.08862305 C35.77230835 -0.09783279 36.86297607 -0.10704254 37.98669434 -0.11653137 C38.99784302 -0.11030258 40.0089917 -0.10407379 41.05078125 -0.09765625 C42.38622986 -0.09860039 42.38622986 -0.09860039 43.74865723 -0.0995636 C46.59898587 0.36893883 47.29889697 0.98008598 49.02539062 3.2746582 C49.40850067 5.86870575 49.40850067 5.86870575 49.4197998 9.04406738 C49.4311496 10.24707993 49.44249939 11.45009247 49.45419312 12.68955994 C49.45154973 14.02456732 49.44857849 15.35957408 49.4453125 16.69458008 C49.45265096 18.09901099 49.46123653 19.50343587 49.47097778 20.90785217 C49.4932242 24.72392322 49.496123 28.53977854 49.49423027 32.35590553 C49.49411073 35.53949836 49.50266779 38.72304521 49.51100779 41.90662527 C49.53025241 49.41523896 49.53312154 56.92374145 49.52636719 64.43237305 C49.51972227 72.18457064 49.54260606 79.93629291 49.57968092 87.68839407 C49.61034037 94.3398544 49.62174216 100.99116152 49.6178441 107.64269114 C49.61577301 111.61732194 49.62131096 115.5915828 49.64573669 119.56614685 C49.66794039 123.3026249 49.6661805 127.03832783 49.64580917 130.77480888 C49.64238788 132.14745621 49.64753641 133.52015507 49.66179276 134.89273262 C49.67988562 136.76349056 49.66428101 138.63448479 49.64685059 140.50524902 C49.6475631 141.55311836 49.6482756 142.6009877 49.6490097 143.68061066 C49.02539062 146.2746582 49.02539062 146.2746582 46.63354492 148.11143684 C43.92151187 149.32098751 42.17130747 149.65413992 39.22265625 149.6628418 C37.83596741 149.67702652 37.83596741 149.67702652 36.42126465 149.6914978 C35.43468872 149.68542511 34.44811279 149.67935242 33.43164062 149.6730957 C31.89521912 149.67740097 31.89521912 149.67740097 30.32775879 149.68179321 C28.16592861 149.68383128 26.00407988 149.67831948 23.84228516 149.66577148 C20.53701464 149.64971467 17.23296694 149.66562944 13.92773438 149.68481445 C11.8248671 149.68283198 9.72200058 149.67898821 7.61914062 149.6730957 C6.6325647 149.6791684 5.64598877 149.68524109 4.6295166 149.6914978 C3.70505737 149.68204132 2.78059814 149.67258484 1.828125 149.6628418 C1.01935913 149.66045502 0.21059326 149.65806824 -0.62268066 149.65560913 C-3.7255871 149.15301946 -5.48051467 148.19287001 -7.97460938 146.2746582 C-8.59822845 143.66219997 -8.59822845 143.66219997 -8.59606934 140.46055603 C-8.60727814 139.24768417 -8.61848694 138.03481232 -8.6300354 136.78518677 C-8.61712402 135.4391432 -8.60370988 134.09310438 -8.58984375 132.74707031 C-8.5933442 131.3311649 -8.59900193 129.91526342 -8.60665894 128.49937439 C-8.62092668 124.65217262 -8.60382758 120.80568385 -8.58037376 116.95855021 C-8.56029635 112.93693324 -8.56614262 108.91534677 -8.56848145 104.89369202 C-8.56842785 98.14059659 -8.54865306 91.38778071 -8.51660156 84.63476562 C-8.47969249 76.82015785 -8.47092769 69.00591618 -8.47789907 61.19123262 C-8.48419714 53.68137334 -8.47346374 46.17163999 -8.45393372 38.66180611 C-8.44574526 35.46206434 -8.4430528 32.2623868 -8.44462585 29.06263542 C-8.44550273 25.29754341 -8.43134258 21.53280108 -8.40539932 17.76780128 C-8.39821776 16.38346934 -8.39616343 14.99910024 -8.39951706 13.61475372 C-8.40321223 11.73040426 -8.38669224 9.84604694 -8.36901855 7.96177673 C-8.36528984 6.90561126 -8.36156113 5.84944578 -8.35771942 4.76127529 C-8.23129311 3.94069165 -8.10486679 3.12010801 -7.97460938 2.2746582 C-4.71541806 0.10186399 -3.77286608 0.01952498 0 0 Z M3.02539062 12.2746582 C3.02539062 53.5246582 3.02539062 94.7746582 3.02539062 137.2746582 C14.24539063 137.2746582 25.46539062 137.2746582 37.02539062 137.2746582 C37.02539062 96.0246582 37.02539062 54.7746582 37.02539062 12.2746582 C25.80539062 12.2746582 14.58539063 12.2746582 3.02539062 12.2746582 Z " fill="#000000" transform="translate(356.974609375,181.725341796875)"/>
<path d="M0 0 C1.51672302 -0.00934319 1.51672302 -0.00934319 3.06408691 -0.01887512 C4.15475464 -0.00966537 5.24542236 -0.00045563 6.36914062 0.0090332 C7.48977905 0.0085347 8.61041748 0.00803619 9.76501465 0.00752258 C12.13551607 0.0098642 14.50601993 0.01959781 16.87646484 0.03613281 C20.51096766 0.05972085 24.14473701 0.05669471 27.77929688 0.05004883 C30.08008251 0.05562558 32.38086505 0.06273544 34.68164062 0.0715332 C35.77230835 0.0706218 36.86297607 0.06971039 37.98669434 0.06877136 C39.50341736 0.08306938 39.50341736 0.08306938 41.05078125 0.09765625 C41.94108032 0.10226364 42.83137939 0.10687103 43.74865723 0.11161804 C46.02539062 0.37231445 46.02539062 0.37231445 49.02539062 2.37231445 C49.33792968 5.49508118 49.45544362 8.4210946 49.4453125 11.54785156 C49.45378204 12.49917465 49.46225159 13.45049774 49.47097778 14.4306488 C49.49444869 17.58711987 49.49536753 20.74310635 49.49414062 23.8996582 C49.50123621 26.08679909 49.50893431 28.2739381 49.51721191 30.46107483 C49.53068002 35.05027437 49.53221507 39.63930182 49.52636719 44.22851562 C49.52046963 50.11823976 49.55105472 56.00713999 49.59148407 61.89670467 C49.61729637 66.41508964 49.62024434 70.93327456 49.61659241 75.4517231 C49.61828979 77.62352125 49.62799131 79.79532805 49.64573669 81.96705437 C49.6677979 85.00106267 49.65828961 88.03338177 49.640625 91.06738281 C49.65388824 91.96982727 49.66715149 92.87227173 49.68081665 93.80206299 C49.64964135 96.09893729 49.57350902 98.14205254 49.02539062 100.37231445 C45.96037877 103.18949345 43.30884211 103.74843915 39.22265625 103.76049805 C37.83596741 103.77468277 37.83596741 103.77468277 36.42126465 103.78915405 C35.43468872 103.78308136 34.44811279 103.77700867 33.43164062 103.77075195 C32.40735962 103.77362213 31.38307861 103.77649231 30.32775879 103.77944946 C28.16592861 103.78148753 26.00407988 103.77597573 23.84228516 103.76342773 C20.53701464 103.74737092 17.23296694 103.76328569 13.92773438 103.7824707 C11.8248671 103.78048823 9.72200058 103.77664446 7.61914062 103.77075195 C6.6325647 103.77682465 5.64598877 103.78289734 4.6295166 103.78915405 C3.70505737 103.77969757 2.78059814 103.77024109 1.828125 103.76049805 C1.01935913 103.75811127 0.21059326 103.75572449 -0.62268066 103.75326538 C-3.88934828 103.22415068 -5.50637695 102.63354838 -7.97460938 100.37231445 C-8.73303209 97.31800319 -8.63644966 94.30778367 -8.58984375 91.17504883 C-8.59539276 90.23333328 -8.60094177 89.29161774 -8.60665894 88.32136536 C-8.61848869 85.2024173 -8.59414597 82.08491132 -8.56835938 78.96606445 C-8.56664912 76.80277574 -8.56671309 74.63948495 -8.56848145 72.47619629 C-8.56682631 67.9399028 -8.54809224 63.40410238 -8.51660156 58.86791992 C-8.47692359 53.04675457 -8.47255512 47.22623553 -8.48006439 41.40496063 C-8.4831307 36.93717504 -8.47102563 32.46953537 -8.45393372 28.00178528 C-8.44689126 25.85513728 -8.44378068 23.70847274 -8.44462585 21.56181335 C-8.44283257 18.56409695 -8.42149072 15.5671618 -8.39453125 12.56958008 C-8.39746185 11.6780574 -8.40039246 10.78653473 -8.40341187 9.86799622 C-8.39206207 9.05203476 -8.38071228 8.2360733 -8.36901855 7.39538574 C-8.36528984 6.68673622 -8.36156113 5.9780867 -8.35771942 5.24796295 C-7.4083959 0.60021942 -4.23842678 -0.00299649 0 0 Z M4.02539062 12.37231445 C4.02539062 38.44231445 4.02539062 64.51231445 4.02539062 91.37231445 C15.24539063 91.37231445 26.46539062 91.37231445 38.02539062 91.37231445 C38.02539062 65.30231445 38.02539062 39.23231445 38.02539062 12.37231445 C26.80539062 12.37231445 15.58539063 12.37231445 4.02539062 12.37231445 Z " fill="#000000" transform="translate(292.974609375,227.627685546875)"/>
</svg>
